HIERARCHY
ROOT Hips
{
	OFFSET 0.000000 0.000000 0.000000
	CHANNELS 6 Xposition Yposition Zposition Zrotation Yrotation Xrotation 
	JOINT LowerBack
	{
		OFFSET 0.000000 0.000000 0.000000
		CHANNELS 3 Zrotation Yrotation Xrotation
		JOINT Spine
		{
			OFFSET 0.028270 2.035590 -0.193380
			CHANNELS 3 Zrotation Yrotation Xrotation
			JOINT Spine1
			{
				OFFSET 0.056720 2.048850 -0.042750
				CHANNELS 3 Zrotation Yrotation Xrotation
				JOINT Neck
				{
					OFFSET 0.000000 0.000000 0.000000
					CHANNELS 3 Zrotation Yrotation Xrotation
					JOINT Neck1
					{
						OFFSET -0.054170 1.746240 0.172020
						CHANNELS 3 Zrotation Yrotation Xrotation
						JOINT Head
						{
							OFFSET 0.104070 1.761360 -0.123970
							CHANNELS 3 Zrotation Yrotation Xrotation
							End Site
							{
								OFFSET 0.000000 0.000000 0.000000
							}
						}
					}
				}
				JOINT LeftShoulder
				{
					OFFSET 0.000000 0.000000 0.000000
					CHANNELS 3 Zrotation Yrotation Xrotation
					JOINT LeftArm
					{
						OFFSET 3.362410 1.200890 -0.311210
						CHANNELS 3 Zrotation Yrotation Xrotation
						JOINT LeftForeArm
						{
							OFFSET 4.983000 -0.000000 -0.000000
							CHANNELS 3 Zrotation Yrotation Xrotation
							JOINT LeftHand
							{
								OFFSET 3.483560 -0.000000 -0.000000
								CHANNELS 3 Zrotation Yrotation Xrotation
								JOINT LeftFingerBase
								{
									OFFSET 0.000000 0.000000 0.000000
									CHANNELS 3 Zrotation Yrotation Xrotation
									JOINT LeftHandIndex1
									{
										OFFSET 0.715260 -0.000000 -0.000000
										CHANNELS 3 Zrotation Yrotation Xrotation
										End Site
										{
											OFFSET 0.000000 0.000000 0.000000
										}
									}
								}
								JOINT LThumb
								{
									OFFSET 0.000000 0.000000 0.000000
									CHANNELS 3 Zrotation Yrotation Xrotation
									End Site
									{
										OFFSET 0.000000 0.000000 0.000000
									}
								}
							}
						}
					}
				}
				JOINT RightShoulder
				{
					OFFSET 0.000000 0.000000 0.000000
					CHANNELS 3 Zrotation Yrotation Xrotation
					JOINT RightArm
					{
						OFFSET -3.136600 1.374050 -0.404650
						CHANNELS 3 Zrotation Yrotation Xrotation
						JOINT RightForeArm
						{
							OFFSET -5.241900 -0.000000 -0.000000
							CHANNELS 3 Zrotation Yrotation Xrotation
							JOINT RightHand
							{
								OFFSET -3.444170 -0.000000 -0.000000
								CHANNELS 3 Zrotation Yrotation Xrotation
								JOINT RightFingerBase
								{
									OFFSET 0.000000 0.000000 0.000000
									CHANNELS 3 Zrotation Yrotation Xrotation
									JOINT RightHandIndex1
									{
										OFFSET -0.622530 -0.000000 -0.000000
										CHANNELS 3 Zrotation Yrotation Xrotation
										End Site
										{
											OFFSET 0.000000 0.000000 0.000000
										}
									}
								}
								JOINT RThumb
								{
									OFFSET 0.000000 0.000000 0.000000
									CHANNELS 3 Zrotation Yrotation Xrotation
									End Site
									{
										OFFSET 0.000000 0.000000 0.000000
									}
								}
							}
						}
					}
				}
			}
		}
	}
}
}
MOTION
Frames: 17
Frame Time: 0.008333
-8.429240 17.032674 -1.373522 -5.416331 83.101973 -0.694748 0.055387 0.493724 -0.979419 -0.359635 0.480957 -2.642987 -4.409060 0.406072 2.555341 9.561864 -11.239248 -11.127734 -1.420113 -0.062645 -0.926934 0.000000 0.000000 0.000000 -2.643490 21.991310 2.349175 -84.405762 21.592188 -10.014598 -4.259867 -12.101738 -0.022106 -6.158967 8.263964 -0.445143 -0.079404 -0.094323 -0.000000 0.000000 0.000000 0.000000 0.000000 0.000000 0.000000 8.597766 -5.647361 1.222407 47.364325 9.428595 -3.599599 2.823691 36.894427 0.013182 1.267834 4.879359 0.052014 0.099430 -0.149853 0.000000 0.000000 0.000000 0.000000 0.000000 0.000000 0.000000 
-8.180636 16.978835 -1.372343 -4.644242 82.929259 -0.223018 -0.157447 0.372783 -0.798862 -0.405455 0.380007 -2.611740 -4.465487 0.307761 2.539845 9.755739 -11.385795 -11.158129 -1.439988 -0.063511 -0.936786 0.000000 0.000000 0.000000 -2.599762 21.938718 2.329062 -84.470411 21.379303 -9.470576 -4.269602 -12.604239 -0.022713 -6.717320 8.342865 -0.490947 -0.076521 -0.094384 -0.000000 0.000000 0.000000 0.000000 0.000000 0.000000 0.000000 8.907604 -5.826301 1.203142 47.852731 8.842727 -3.557084 2.866127 36.833334 0.013498 1.482045 4.828616 0.060812 0.099049 -0.145182 0.000000 0.000000 0.000000 0.000000 0.000000 0.000000 0.000000 
-7.934715 16.922619 -1.369515 -3.603700 82.735670 0.590516 -0.393342 0.244181 -0.647326 -0.455780 0.271205 -2.587772 -4.523516 0.201055 2.519217 9.938664 -11.516392 -11.197884 -1.461341 -0.064366 -0.949071 0.000000 0.000000 0.000000 -2.576181 21.896237 2.305945 -84.395392 21.090774 -8.723611 -4.274027 -13.227660 -0.023086 -7.229635 8.345191 -0.529146 -0.073865 -0.093832 -0.000000 0.000000 0.000000 0.000000 0.000000 0.000000 0.000000 9.198146 -5.983397 1.180892 48.467369 8.216950 -3.651370 2.905311 36.721172 0.013640 1.573840 4.799243 0.064314 0.099745 -0.141447 -0.000000 0.000000 0.000000 0.000000 0.000000 0.000000 0.000000 
-7.691756 16.866009 -1.365196 -2.360836 82.527930 1.685842 -0.644960 0.110271 -0.532434 -0.509529 0.156089 -2.572159 -4.583714 0.087452 2.494580 10.107459 -11.632138 -11.245449 -1.484827 -0.065301 -0.963307 0.000000 0.000000 0.000000 -2.570215 21.858652 2.279313 -84.176009 20.708486 -7.838371 -4.271276 -13.925919 -0.023148 -7.638885 8.266385 -0.554238 -0.071704 -0.092527 -0.000000 0.000000 0.000000 0.000000 0.000000 0.000000 0.000000 9.468610 -6.121219 1.155203 49.212618 7.544109 -3.903178 2.940807 36.547583 0.013622 1.529154 4.798482 0.062322 0.101559 -0.138710 -0.000000 0.000000 0.000000 0.000000 0.000000 0.000000 0.000000 
-7.451815 16.810949 -1.359522 -0.957608 82.312568 3.021956 -0.908550 -0.027282 -0.457983 -0.566215 0.035951 -2.564667 -4.646395 -0.031720 2.469266 10.262028 -11.741940 -11.301507 -1.510648 -0.066327 -0.979692 0.000000 0.000000 0.000000 -2.573280 21.825305 2.248692 -83.813911 20.213159 -6.876555 -4.260735 -14.651077 -0.022848 -7.898724 8.110735 -0.562622 -0.070291 -0.090381 -0.000000 0.000000 0.000000 0.000000 0.000000 0.000000 0.000000 9.723530 -6.251560 1.125823 50.084474 6.831447 -4.312392 2.972385 36.298686 0.013453 1.338174 4.835363 0.054331 0.104476 -0.136941 -0.000000 0.000000 0.000000 0.000000 0.000000 0.000000 0.000000 
-7.214914 16.759225 -1.352755 0.555483 82.095274 4.542241 -1.175759 -0.166173 -0.424462 -0.624619 -0.087387 -2.566505 -4.712763 -0.154663 2.438292 10.397141 -11.828033 -11.357426 -1.540959 -0.067774 -0.995816 0.000000 0.000000 0.000000 -2.581289 21.767070 2.215344 -83.321054 19.620252 -5.918216 -4.242752 -15.385106 -0.022193 -7.983309 7.891934 -0.553297 -0.069782 -0.087398 -0.000000 0.000000 0.000000 0.000000 0.000000 0.000000 0.000000 9.959464 -6.357236 1.094022 51.088965 6.042941 -4.912968 3.000036 35.980307 0.013157 1.019101 4.910197 0.040946 0.108199 -0.136029 -0.000000 0.000000 0.000000 0.000000 0.000000 0.000000 0.000000 
-6.980904 16.712295 -1.345163 2.142800 81.881294 6.198995 -1.443470 -0.306120 -0.425538 -0.684021 -0.213444 -2.573873 -4.782073 -0.280606 2.411235 10.519356 -11.921735 -11.420736 -1.574220 -0.069375 -1.013902 0.000000 0.000000 0.000000 -2.580286 21.703576 2.177822 -82.707425 18.902695 -4.999029 -4.218918 -16.082330 -0.021211 -7.879568 7.623073 -0.527166 -0.070320 -0.083585 -0.000000 0.000000 0.000000 0.000000 0.000000 0.000000 0.000000 10.191445 -6.475210 1.059625 52.199420 5.227854 -5.650936 3.024060 35.567304 0.012739 0.565494 5.033506 0.021261 0.112688 -0.135755 -0.000000 0.000000 0.000000 0.000000 0.000000 0.000000 0.000000 
-6.749474 16.671466 -1.337123 3.733123 81.673653 7.904347 -1.698247 -0.445110 -0.453856 -0.742021 -0.340612 -2.586761 -4.855094 -0.407852 2.381905 10.623356 -12.001306 -11.481422 -1.612369 -0.071457 -1.031193 0.000000 0.000000 0.000000 -2.567979 21.605220 2.137895 -81.992058 18.094373 -4.182957 -4.191201 -16.749390 -0.019981 -7.600284 7.321642 -0.487926 -0.071897 -0.079049 -0.000000 0.000000 0.000000 0.000000 0.000000 0.000000 0.000000 10.414521 -6.583880 1.024724 53.414512 4.349319 -6.550231 3.044885 35.071032 0.012228 0.013813 5.199140 -0.004024 0.117502 -0.135872 -0.000000 0.000000 0.000000 0.000000 0.000000 0.000000 0.000000 
-6.520123 16.637580 -1.329069 5.257582 81.475555 9.571637 -1.929474 -0.582854 -0.498434 -0.796194 -0.468641 -2.600470 -4.930263 -0.535749 2.359931 10.715393 -12.099899 -11.547228 -1.652912 -0.073665 -1.049938 0.000000 0.000000 0.000000 -2.537574 21.496174 2.093692 -81.187484 17.181379 -3.484027 -4.162223 -17.366408 -0.018583 -7.169414 6.998864 -0.439279 -0.074479 -0.073868 -0.000000 0.000000 0.000000 0.000000 0.000000 0.000000 0.000000 10.640644 -6.721929 0.989417 54.700130 3.462929 -7.539136 3.063750 34.465552 0.011635 -0.631307 5.409433 -0.035710 0.122577 -0.136047 -0.000000 0.000000 0.000000 0.000000 0.000000 0.000000 0.000000 
-6.292226 16.611253 -1.321494 6.632412 81.289695 11.098275 -2.119937 -0.717384 -0.550720 -0.843244 -0.596195 -2.614974 -5.007730 -0.662849 2.338595 10.789380 -12.193073 -11.607433 -1.697329 -0.076302 -1.067117 0.000000 0.000000 0.000000 -2.491623 21.352150 2.047023 -80.311353 16.209677 -2.943676 -4.134263 -17.962245 -0.017121 -6.629093 6.666288 -0.386129 -0.077913 -0.068189 -0.000000 0.000000 0.000000 0.000000 0.000000 0.000000 0.000000 10.861665 -6.863876 0.955827 56.050447 2.530688 -8.635987 3.081504 33.766303 0.011010 -1.324696 5.649260 -0.072601 0.127481 -0.136004 -0.000000 0.000000 0.000000 0.000000 0.000000 0.000000 0.000000 
-6.065033 16.592668 -1.314888 7.788997 81.120202 12.400745 -2.256129 -0.848532 -0.602622 -0.880028 -0.723526 -2.627079 -5.085277 -0.789095 2.324317 10.847673 -12.303166 -11.666435 -1.742858 -0.079050 -1.083917 0.000000 0.000000 0.000000 -2.431767 21.193419 1.996528 -79.372292 15.184210 -2.556608 -4.109611 -18.545211 -0.015674 -6.024869 6.328207 -0.332175 -0.082052 -0.062119 -0.000000 0.000000 0.000000 0.000000 0.000000 0.000000 0.000000 11.079650 -7.035794 0.924013 57.437069 1.590565 -9.784516 3.099937 32.954450 0.010384 -2.051208 5.910202 -0.114497 0.132163 -0.135465 -0.000000 0.000000 0.000000 0.000000 0.000000 0.000000 0.000000 
-5.837732 16.581805 -1.309681 8.672683 80.973953 13.413027 -2.324702 -0.976072 -0.649939 -0.903663 -0.851052 -2.636549 -5.161653 -0.914815 2.315236 10.886969 -12.422456 -11.719181 -1.788999 -0.081949 -1.098804 0.000000 0.000000 0.000000 -2.363581 21.016006 1.942937 -78.380056 14.138506 -2.328375 -4.089815 -19.147692 -0.014311 -5.406945 5.988696 -0.281218 -0.086705 -0.055779 -0.000000 0.000000 0.000000 0.000000 0.000000 0.000000 0.000000 11.287774 -7.230278 0.894848 58.845983 0.631527 -10.977460 3.120432 32.034660 0.009800 -2.778129 6.175442 -0.159799 0.136435 -0.134242 -0.000000 0.000000 0.000000 0.000000 0.000000 0.000000 0.000000 
-5.609481 16.578324 -1.306227 9.252130 80.860943 14.097259 -2.316358 -1.101502 -0.690831 -0.911701 -0.980758 -2.642172 -5.234241 -1.041867 2.315416 10.906990 -12.564438 -11.767854 -1.832947 -0.084719 -1.112241 0.000000 0.000000 0.000000 -2.293082 20.836373 1.885717 -77.338157 13.085025 -2.234868 -4.075846 -19.793207 -0.013066 -4.819663 5.648363 -0.235459 -0.091715 -0.049261 -0.000000 0.000000 0.000000 0.000000 0.000000 0.000000 0.000000 11.480981 -7.463547 0.867859 60.256809 -0.325620 -12.180175 3.144745 30.995952 0.009296 -3.488940 6.431796 -0.207308 0.140317 -0.132215 -0.000000 0.000000 0.000000 0.000000 0.000000 0.000000 0.000000 
-5.379615 16.581742 -1.304802 9.516854 80.793895 14.439714 -2.224405 -1.226803 -0.726800 -0.902516 -1.115127 -2.645356 -5.301840 -1.172830 2.321264 10.903804 -12.715648 -11.806282 -1.874636 -0.087460 -1.122334 0.000000 0.000000 0.000000 -2.226175 20.646173 1.826472 -76.251725 12.060844 -2.264519 -4.067541 -20.521808 -0.011958 -4.301857 5.310000 -0.196599 -0.096916 -0.042668 -0.000000 0.000000 0.000000 0.000000 0.000000 0.000000 0.000000 11.650726 -7.721776 0.843719 61.661514 -1.302906 -13.406782 3.174046 29.850519 0.008906 -4.152350 6.662067 -0.254224 0.143703 -0.129375 -0.000000 0.000000 0.000000 0.000000 0.000000 0.000000 0.000000 
-5.147512 16.591416 -1.305572 9.472796 80.787169 14.447463 -2.047826 -1.355675 -0.759371 -0.875224 -1.257970 -2.645142 -5.361940 -1.311471 2.338517 10.879704 -12.895640 -11.839891 -1.910863 -0.089803 -1.130481 0.000000 0.000000 0.000000 -2.168734 20.467754 1.764722 -75.119451 11.063807 -2.371668 -4.064169 -21.351201 -0.010969 -3.877227 4.974763 -0.165138 -0.102204 -0.036042 -0.000000 0.000000 0.000000 0.000000 0.000000 0.000000 0.000000 11.794661 -8.027770 0.821148 63.040537 -2.271614 -14.623892 3.209742 28.588363 0.008653 -4.762215 6.858412 -0.298946 0.146739 -0.125759 -0.000000 0.000000 0.000000 0.000000 0.000000 0.000000 0.000000 
-4.912788 16.606630 -1.308557 9.131023 80.855496 14.133711 -1.787981 -1.491628 -0.790869 -0.829772 -1.412822 -2.642311 -5.413658 -1.461434 2.366392 10.834819 -13.102142 -11.867472 -1.941010 -0.091713 -1.136266 0.000000 0.000000 0.000000 -2.124147 20.301108 1.701775 -73.942415 10.110694 -2.523211 -4.063825 -22.308383 -0.010079 -3.557966 4.646294 -0.140674 -0.107474 -0.029441 -0.000000 0.000000 0.000000 0.000000 0.000000 0.000000 0.000000 11.909829 -8.379668 0.800131 64.384722 -3.237629 -15.838386 3.252568 27.219656 0.008545 -5.300815 7.012207 -0.339173 0.149441 -0.121483 -0.000000 0.000000 0.000000 0.000000 0.000000 0.000000 0.000000 
-4.675407 16.626622 -1.313682 8.502393 81.011789 13.510125 -1.449890 -1.637749 -0.822713 -0.767142 -1.582561 -2.638273 -5.457423 -1.625783 2.400511 10.769631 -13.321637 -11.884807 -1.966250 -0.093360 -1.138514 0.000000 0.000000 0.000000 -2.091051 20.133334 1.639974 -72.723263 9.225765 -2.694863 -4.063585 -23.419575 -0.009256 -3.343666 4.329737 -0.122509 -0.112613 -0.022920 -0.000000 0.000000 0.000000 0.000000 0.000000 0.000000 0.000000 11.996276 -8.762280 0.781537 65.690513 -4.222531 -17.080192 3.302513 25.768531 0.008583 -5.747305 7.117566 -0.372404 0.151761 -0.116726 -0.000000 0.000000 0.000000 0.000000 0.000000 0.000000 0.000000 
